<?xml version="1.0" encoding="UTF-8" standalone="no"?>
<!-- Created with Inkscape (http://www.inkscape.org/) -->

<svg
   width="120mm"
   height="120mm"
   viewBox="0 0 119.99999 120"
   version="1.1"
   id="svg5"
   xml:space="preserve"
   inkscape:version="1.2.2 (b0a8486541, 2022-12-01, custom)"
   sodipodi:docname="logo_stacked.svg"
   inkscape:export-filename="../../../../../home/bolo/dev/repo/manito/assets/logo_white_white_transp.png"
   inkscape:export-xdpi="200"
   inkscape:export-ydpi="200"
   xmlns:inkscape="http://www.inkscape.org/namespaces/inkscape"
   xmlns:sodipodi="http://sodipodi.sourceforge.net/DTD/sodipodi-0.dtd"
   xmlns="http://www.w3.org/2000/svg"
   xmlns:svg="http://www.w3.org/2000/svg"><sodipodi:namedview
     id="namedview7"
     pagecolor="#f0f0f0"
     bordercolor="#666666"
     borderopacity="1.0"
     inkscape:showpageshadow="true"
     inkscape:pageopacity="0"
     inkscape:pagecheckerboard="true"
     inkscape:deskcolor="#d1d1d1"
     inkscape:document-units="mm"
     showgrid="false"
     inkscape:zoom="1.0708779"
     inkscape:cx="229.25116"
     inkscape:cy="239.99001"
     inkscape:window-width="1869"
     inkscape:window-height="1025"
     inkscape:window-x="51"
     inkscape:window-y="27"
     inkscape:window-maximized="1"
     inkscape:current-layer="layer2"
     showborder="true"
     shape-rendering="auto"
     borderlayer="true" /><defs
     id="defs2"><rect
       x="249.44733"
       y="85.170929"
       width="815.94678"
       height="182.56998"
       id="rect4080" /><inkscape:path-effect
       effect="fillet_chamfer"
       id="path-effect223"
       is_visible="true"
       lpeversion="1"
       nodesatellites_param="F,0,0,1,0,13.229167,0,1 @ F,0,0,1,0,13.229167,0,1 @ F,0,0,1,0,13.229167,0,1 @ F,0,0,1,0,13.229167,0,1 @ F,0,0,1,0,13.229167,0,1 @ F,0,0,1,0,13.229167,0,1"
       unit="px"
       method="auto"
       mode="F"
       radius="50"
       chamfer_steps="1"
       flexible="false"
       use_knot_distance="true"
       apply_no_radius="true"
       apply_with_radius="true"
       only_selected="false"
       hide_knots="false" /><filter
       style="color-interpolation-filters:sRGB"
       inkscape:label="Invert"
       id="filter4020"
       x="0"
       y="0"
       width="1"
       height="1"><feColorMatrix
         values="1 0 0 0 0 0 1 0 0 0 0 0 1 0 0 -0.21 -0.72 -0.07 2 0 "
         result="color2"
         id="feColorMatrix4018" /></filter></defs><g
     inkscape:groupmode="layer"
     id="layer2"
     inkscape:label="color_icon_white_text_transp"
     style="display:inline"
     transform="translate(-1.6498566e-6,41.587501)"><rect
       style="fill:#ffffff;stroke-width:0.0119921;-inkscape-stroke:none;stop-color:#000000"
       id="rect484"
       width="35.782322"
       height="34.862434"
       x="42.093807"
       y="-9.1533289" /><path
       id="path221-0-4-9"
       style="font-variation-settings:normal;display:inline;vector-effect:none;fill:#5da271;fill-opacity:1;stroke-width:0.0555651;stroke-linecap:butt;stroke-linejoin:miter;stroke-miterlimit:4;stroke-dasharray:none;stroke-dashoffset:0;stroke-opacity:1;-inkscape-stroke:none;stop-color:#000000"
       d="m 60.029083,-20.087499 a 4.8120859,4.8120838 0 0 0 -2.406693,0.642587 L 37.434262,-7.8171671 a 4.8120859,4.8120838 0 0 0 -2.410569,4.164762 l -0.02369,23.2972671 a 4.8120859,4.8120838 0 0 0 2.401525,4.16993 l 20.164011,11.66952 a 4.8120859,4.8120838 0 0 0 4.812091,0.0052 L 82.565753,23.86132 a 4.8120859,4.8120838 0 0 0 2.410576,-4.164764 l 0.02367,-23.2972651 a 4.8120859,4.8120838 0 0 0 -2.401518,-4.169946 l -20.164,-11.6695189 a 4.8120859,4.8120838 0 0 0 -2.405398,-0.647325 z m -1.348488,12.4912739 c 0.860055,0 1.472257,0.346484 1.828275,1.034946 0.237212,0.458718 1.048064,6.48609903 1.313171,9.759845 0.134712,1.663463 0.380869,2.158614 1.071987,2.158614 0.422801,0 0.51014,-0.0829 0.656801,-0.622775 0.09305,-0.342529 0.365298,-2.453658 0.604687,-4.69149697 0.465373,-4.35033903 0.617084,-4.89019303 1.485447,-5.28584803 0.234893,-0.107026 0.721955,-0.194671 1.082753,-0.194671 0.833393,0 1.983894,0.947985 1.988923,1.638772 0.0018,0.240558 -0.231318,2.546552 -0.517688,5.12477 -0.286368,2.578218 -0.476272,4.803511 -0.422076,4.944741 0.131479,0.342634 0.514773,0.473796 1.015997,0.347997 0.355232,-0.08916 0.479995,-0.332545 0.925121,-1.803295 1.252027,-4.13688097 1.388069,-4.50566097 1.863595,-5.04724497 0.434991,-0.49544 0.580733,-0.555589 1.347191,-0.555589 0.966743,0 1.472351,0.273412 1.847226,0.998337 0.455159,0.88017197 0.449193,0.91137997 -1.260633,6.47497997 -0.396209,1.289229 -0.770409,3.019949 -0.987568,4.5670281 -0.625775,4.458191 -1.410484,6.888181 -2.897241,8.971684 -0.997258,1.397528 -2.105582,2.271123 -4.072599,3.210355 -1.551085,0.740631 -1.609661,0.75408 -3.48729,0.804958 -1.511158,0.04095 -2.10242,-0.012 -2.831783,-0.253244 -2.376712,-0.786167 -5.299686,-2.624765 -7.373831,-4.638091 -0.635007,-0.616386 -1.53865,-1.419415 -2.007873,-1.784775 -5.787319,-4.506312 -6.411745,-5.159723 -5.772959,-6.040415 0.520376,-0.71744 1.776597,-1.246958 2.943332,-1.240816 1.293736,0.0068 1.98443,0.311473 3.508393,1.547036 0.67912,0.550603 1.345573,1.000922 1.48114,1.000922 0.384278,0 0.753276,-0.894603 0.753276,-1.826553 0,-0.820753 -0.909037,-3.5233841 -2.765024,-8.2205631 -1.031063,-2.60943697 -1.719092,-4.595399 -1.718451,-4.960677 9.16e-4,-0.528199 0.589419,-1.392728 1.202054,-1.766256 1.221119,-0.744525 2.641074,-0.10149 3.211648,1.454867 0.158834,0.433249 0.617405,1.64742303 1.019012,2.69783703 0.401607,1.05041397 0.997075,2.65700997 1.323508,3.57041297 0.326433,0.913403 0.707387,1.791607 0.846735,1.951452 0.364963,0.418646 1.136657,0.372767 1.43678,-0.08528 0.220869,-0.33709 0.187226,-0.877624 -0.328185,-5.25613097 -0.315983,-2.68433403 -0.57454,-5.17219703 -0.57454,-5.52832503 0,-1.340325 1.027925,-2.45751 2.260689,-2.457511 z"
       inkscape:label="logo" /><text
       xml:space="preserve"
       id="text4078-2-8-9"
       style="font-style:normal;font-weight:normal;font-size:21.0499px;line-height:1;font-family:sans-serif;font-variation-settings:normal;letter-spacing:0px;word-spacing:0px;white-space:pre;shape-padding:14.1139;display:inline;vector-effect:none;fill:#ffffff;fill-opacity:1;stroke:none;stroke-width:0.197343;stroke-linecap:butt;stroke-linejoin:miter;stroke-miterlimit:4;stroke-dasharray:none;stroke-dashoffset:0;stroke-opacity:1;-inkscape-stroke:none;stop-color:#000000"
       x="5.7837243"
       y="57.112965"
       inkscape:label="text"><tspan
         id="tspan4164-7-8-2"
         style="font-style:normal;font-variant:normal;font-weight:600;font-stretch:normal;font-size:21.0499px;font-family:'Montserrat Alternates';-inkscape-font-specification:'Montserrat Alternates Semi-Bold';fill:#ffffff;fill-opacity:1;stroke-width:0.197343"
         dx="2.2375867">MA<tspan
   style="letter-spacing:0.394686px;fill:#ffffff;fill-opacity:1;stroke-width:0.197343"
   id="tspan7710-4-0">N</tspan><tspan
   style="letter-spacing:1.97343px;fill:#ffffff;fill-opacity:1;stroke-width:0.197343"
   id="tspan7704-3-6">I</tspan><tspan
   style="letter-spacing:0.592029px;fill:#ffffff;fill-opacity:1;stroke-width:0.197343"
   id="tspan7714-1-8">T</tspan>O</tspan></text></g><g
     inkscape:groupmode="layer"
     id="layer2-2"
     inkscape:label="color_icon_black_text_white_bg"
     style="display:none"
     transform="translate(-1.6498566e-6,41.587501)"><rect
       style="fill:#ffffff;stroke-width:0.0407442;-inkscape-stroke:none;stop-color:#000000"
       id="rect484-0"
       width="120"
       height="120"
       x="1.6498566e-06"
       y="-41.587502" /><path
       id="path221-0-4-9-61"
       style="font-variation-settings:normal;display:inline;vector-effect:none;fill:#5da271;fill-opacity:1;stroke-width:0.0555651;stroke-linecap:butt;stroke-linejoin:miter;stroke-miterlimit:4;stroke-dasharray:none;stroke-dashoffset:0;stroke-opacity:1;-inkscape-stroke:none;stop-color:#000000"
       d="m 60.029083,-20.087499 a 4.8120859,4.8120838 0 0 0 -2.406693,0.642587 L 37.434262,-7.8171671 a 4.8120859,4.8120838 0 0 0 -2.410569,4.164762 l -0.02369,23.2972671 a 4.8120859,4.8120838 0 0 0 2.401525,4.16993 l 20.164011,11.66952 a 4.8120859,4.8120838 0 0 0 4.812091,0.0052 L 82.565753,23.86132 a 4.8120859,4.8120838 0 0 0 2.410576,-4.164764 l 0.02367,-23.2972651 a 4.8120859,4.8120838 0 0 0 -2.401518,-4.169946 l -20.164,-11.6695189 a 4.8120859,4.8120838 0 0 0 -2.405398,-0.647325 z m -1.348488,12.4912739 c 0.860055,0 1.472257,0.346484 1.828275,1.034946 0.237212,0.458718 1.048064,6.48609903 1.313171,9.759845 0.134712,1.663463 0.380869,2.158614 1.071987,2.158614 0.422801,0 0.51014,-0.0829 0.656801,-0.622775 0.09305,-0.342529 0.365298,-2.453658 0.604687,-4.69149697 0.465373,-4.35033903 0.617084,-4.89019303 1.485447,-5.28584803 0.234893,-0.107026 0.721955,-0.194671 1.082753,-0.194671 0.833393,0 1.983894,0.947985 1.988923,1.638772 0.0018,0.240558 -0.231318,2.546552 -0.517688,5.12477 -0.286368,2.578218 -0.476272,4.803511 -0.422076,4.944741 0.131479,0.342634 0.514773,0.473796 1.015997,0.347997 0.355232,-0.08916 0.479995,-0.332545 0.925121,-1.803295 1.252027,-4.13688097 1.388069,-4.50566097 1.863595,-5.04724497 0.434991,-0.49544 0.580733,-0.555589 1.347191,-0.555589 0.966743,0 1.472351,0.273412 1.847226,0.998337 0.455159,0.88017197 0.449193,0.91137997 -1.260633,6.47497997 -0.396209,1.289229 -0.770409,3.019949 -0.987568,4.5670281 -0.625775,4.458191 -1.410484,6.888181 -2.897241,8.971684 -0.997258,1.397528 -2.105582,2.271123 -4.072599,3.210355 -1.551085,0.740631 -1.609661,0.75408 -3.48729,0.804958 -1.511158,0.04095 -2.10242,-0.012 -2.831783,-0.253244 -2.376712,-0.786167 -5.299686,-2.624765 -7.373831,-4.638091 -0.635007,-0.616386 -1.53865,-1.419415 -2.007873,-1.784775 -5.787319,-4.506312 -6.411745,-5.159723 -5.772959,-6.040415 0.520376,-0.71744 1.776597,-1.246958 2.943332,-1.240816 1.293736,0.0068 1.98443,0.311473 3.508393,1.547036 0.67912,0.550603 1.345573,1.000922 1.48114,1.000922 0.384278,0 0.753276,-0.894603 0.753276,-1.826553 0,-0.820753 -0.909037,-3.5233841 -2.765024,-8.2205631 -1.031063,-2.60943697 -1.719092,-4.595399 -1.718451,-4.960677 9.16e-4,-0.528199 0.589419,-1.392728 1.202054,-1.766256 1.221119,-0.744525 2.641074,-0.10149 3.211648,1.454867 0.158834,0.433249 0.617405,1.64742303 1.019012,2.69783703 0.401607,1.05041397 0.997075,2.65700997 1.323508,3.57041297 0.326433,0.913403 0.707387,1.791607 0.846735,1.951452 0.364963,0.418646 1.136657,0.372767 1.43678,-0.08528 0.220869,-0.33709 0.187226,-0.877624 -0.328185,-5.25613097 -0.315983,-2.68433403 -0.57454,-5.17219703 -0.57454,-5.52832503 0,-1.340325 1.027925,-2.45751 2.260689,-2.457511 z"
       inkscape:label="logo" /><text
       xml:space="preserve"
       id="text4078-2-8-9-5"
       style="font-style:normal;font-weight:normal;font-size:21.0499px;line-height:1;font-family:sans-serif;font-variation-settings:normal;letter-spacing:0px;word-spacing:0px;white-space:pre;shape-padding:14.1139;display:inline;vector-effect:none;fill:#262626;fill-opacity:1;stroke:none;stroke-width:0.197343;stroke-linecap:butt;stroke-linejoin:miter;stroke-miterlimit:4;stroke-dasharray:none;stroke-dashoffset:0;stroke-opacity:1;-inkscape-stroke:none;stop-color:#000000"
       x="5.7837243"
       y="57.112965"
       inkscape:label="text"><tspan
         id="tspan4164-7-8-2-5"
         style="font-style:normal;font-variant:normal;font-weight:600;font-stretch:normal;font-size:21.0499px;font-family:'Montserrat Alternates';-inkscape-font-specification:'Montserrat Alternates Semi-Bold';fill:#262626;fill-opacity:1;stroke-width:0.197343"
         dx="2.2375867">MA<tspan
   style="letter-spacing:0.394686px;fill:#262626;fill-opacity:1;stroke-width:0.197343"
   id="tspan7710-4-0-4">N</tspan><tspan
   style="letter-spacing:1.97343px;fill:#262626;fill-opacity:1;stroke-width:0.197343"
   id="tspan7704-3-6-7">I</tspan><tspan
   style="letter-spacing:0.592029px;fill:#262626;fill-opacity:1;stroke-width:0.197343"
   id="tspan7714-1-8-6">T</tspan>O</tspan></text></g><g
     inkscape:groupmode="layer"
     id="layer2-3"
     inkscape:label="color_icon_black_text_transp"
     style="display:none"
     transform="translate(-1.6498566e-6,41.587502)"><rect
       style="display:inline;fill:none;stroke-width:0.0407442;-inkscape-stroke:none;stop-color:#000000"
       id="rect484-2"
       width="120"
       height="120"
       x="1.6498566e-06"
       y="-41.587502" /><path
       id="path221-0-4-9-6"
       style="font-variation-settings:normal;display:inline;vector-effect:none;fill:#5da271;fill-opacity:1;stroke-width:0.0555651;stroke-linecap:butt;stroke-linejoin:miter;stroke-miterlimit:4;stroke-dasharray:none;stroke-dashoffset:0;stroke-opacity:1;-inkscape-stroke:none;stop-color:#000000"
       d="m 60.029083,-20.087499 a 4.8120859,4.8120838 0 0 0 -2.406693,0.642587 L 37.434262,-7.8171671 a 4.8120859,4.8120838 0 0 0 -2.410569,4.164762 l -0.02369,23.2972671 a 4.8120859,4.8120838 0 0 0 2.401525,4.16993 l 20.164011,11.66952 a 4.8120859,4.8120838 0 0 0 4.812091,0.0052 L 82.565753,23.86132 a 4.8120859,4.8120838 0 0 0 2.410576,-4.164764 l 0.02367,-23.2972651 a 4.8120859,4.8120838 0 0 0 -2.401518,-4.169946 l -20.164,-11.6695189 a 4.8120859,4.8120838 0 0 0 -2.405398,-0.647325 z m -1.348488,12.4912739 c 0.860055,0 1.472257,0.346484 1.828275,1.034946 0.237212,0.458718 1.048064,6.48609903 1.313171,9.759845 0.134712,1.663463 0.380869,2.158614 1.071987,2.158614 0.422801,0 0.51014,-0.0829 0.656801,-0.622775 0.09305,-0.342529 0.365298,-2.453658 0.604687,-4.69149697 0.465373,-4.35033903 0.617084,-4.89019303 1.485447,-5.28584803 0.234893,-0.107026 0.721955,-0.194671 1.082753,-0.194671 0.833393,0 1.983894,0.947985 1.988923,1.638772 0.0018,0.240558 -0.231318,2.546552 -0.517688,5.12477 -0.286368,2.578218 -0.476272,4.803511 -0.422076,4.944741 0.131479,0.342634 0.514773,0.473796 1.015997,0.347997 0.355232,-0.08916 0.479995,-0.332545 0.925121,-1.803295 1.252027,-4.13688097 1.388069,-4.50566097 1.863595,-5.04724497 0.434991,-0.49544 0.580733,-0.555589 1.347191,-0.555589 0.966743,0 1.472351,0.273412 1.847226,0.998337 0.455159,0.88017197 0.449193,0.91137997 -1.260633,6.47497997 -0.396209,1.289229 -0.770409,3.019949 -0.987568,4.5670281 -0.625775,4.458191 -1.410484,6.888181 -2.897241,8.971684 -0.997258,1.397528 -2.105582,2.271123 -4.072599,3.210355 -1.551085,0.740631 -1.609661,0.75408 -3.48729,0.804958 -1.511158,0.04095 -2.10242,-0.012 -2.831783,-0.253244 -2.376712,-0.786167 -5.299686,-2.624765 -7.373831,-4.638091 -0.635007,-0.616386 -1.53865,-1.419415 -2.007873,-1.784775 -5.787319,-4.506312 -6.411745,-5.159723 -5.772959,-6.040415 0.520376,-0.71744 1.776597,-1.246958 2.943332,-1.240816 1.293736,0.0068 1.98443,0.311473 3.508393,1.547036 0.67912,0.550603 1.345573,1.000922 1.48114,1.000922 0.384278,0 0.753276,-0.894603 0.753276,-1.826553 0,-0.820753 -0.909037,-3.5233841 -2.765024,-8.2205631 -1.031063,-2.60943697 -1.719092,-4.595399 -1.718451,-4.960677 9.16e-4,-0.528199 0.589419,-1.392728 1.202054,-1.766256 1.221119,-0.744525 2.641074,-0.10149 3.211648,1.454867 0.158834,0.433249 0.617405,1.64742303 1.019012,2.69783703 0.401607,1.05041397 0.997075,2.65700997 1.323508,3.57041297 0.326433,0.913403 0.707387,1.791607 0.846735,1.951452 0.364963,0.418646 1.136657,0.372767 1.43678,-0.08528 0.220869,-0.33709 0.187226,-0.877624 -0.328185,-5.25613097 -0.315983,-2.68433403 -0.57454,-5.17219703 -0.57454,-5.52832503 0,-1.340325 1.027925,-2.45751 2.260689,-2.457511 z"
       inkscape:label="logo" /><text
       xml:space="preserve"
       id="text4078-2-8-9-6"
       style="font-style:normal;font-weight:normal;font-size:21.0499px;line-height:1;font-family:sans-serif;font-variation-settings:normal;letter-spacing:0px;word-spacing:0px;white-space:pre;shape-padding:14.1139;display:inline;vector-effect:none;fill:#262626;fill-opacity:1;stroke:none;stroke-width:0.197343;stroke-linecap:butt;stroke-linejoin:miter;stroke-miterlimit:4;stroke-dasharray:none;stroke-dashoffset:0;stroke-opacity:1;-inkscape-stroke:none;stop-color:#000000"
       x="5.7837243"
       y="57.112965"
       inkscape:label="text"><tspan
         id="tspan4164-7-8-2-7"
         style="font-style:normal;font-variant:normal;font-weight:600;font-stretch:normal;font-size:21.0499px;font-family:'Montserrat Alternates';-inkscape-font-specification:'Montserrat Alternates Semi-Bold';fill:#262626;fill-opacity:1;stroke-width:0.197343"
         dx="2.2375867">MA<tspan
   style="letter-spacing:0.394686px;fill:#262626;fill-opacity:1;stroke-width:0.197343"
   id="tspan7710-4-0-5">N</tspan><tspan
   style="letter-spacing:1.97343px;fill:#262626;fill-opacity:1;stroke-width:0.197343"
   id="tspan7704-3-6-3">I</tspan><tspan
   style="letter-spacing:0.592029px;fill:#262626;fill-opacity:1;stroke-width:0.197343"
   id="tspan7714-1-8-5">T</tspan>O</tspan></text></g></svg>
