<?xml version="1.0" encoding="UTF-8" standalone="no"?>
<!-- Created with Inkscape (http://www.inkscape.org/) -->

<svg
   width="177.756mm"
   height="41.223999mm"
   viewBox="0 0 177.75599 41.223999"
   version="1.1"
   id="svg5"
   xml:space="preserve"
   inkscape:version="1.2.2 (b0a8486541, 2022-12-01, custom)"
   sodipodi:docname="logo_plain.svg"
   inkscape:export-filename="../../../../../home/bolo/dev/repo/manito/assets/logo_white_white_transp.png"
   inkscape:export-xdpi="200"
   inkscape:export-ydpi="200"
   xmlns:inkscape="http://www.inkscape.org/namespaces/inkscape"
   xmlns:sodipodi="http://sodipodi.sourceforge.net/DTD/sodipodi-0.dtd"
   xmlns="http://www.w3.org/2000/svg"
   xmlns:svg="http://www.w3.org/2000/svg"><sodipodi:namedview
     id="namedview7"
     pagecolor="#f0f0f0"
     bordercolor="#666666"
     borderopacity="1.0"
     inkscape:showpageshadow="true"
     inkscape:pageopacity="0"
     inkscape:pagecheckerboard="true"
     inkscape:deskcolor="#d1d1d1"
     inkscape:document-units="mm"
     showgrid="false"
     inkscape:zoom="1.0708779"
     inkscape:cx="418.81525"
     inkscape:cy="44.823037"
     inkscape:window-width="1869"
     inkscape:window-height="1025"
     inkscape:window-x="51"
     inkscape:window-y="27"
     inkscape:window-maximized="1"
     inkscape:current-layer="layer2"
     showborder="true"
     shape-rendering="auto"
     borderlayer="true" /><defs
     id="defs2"><rect
       x="249.44733"
       y="85.170929"
       width="815.94678"
       height="182.56998"
       id="rect4080" /><inkscape:path-effect
       effect="fillet_chamfer"
       id="path-effect223"
       is_visible="true"
       lpeversion="1"
       nodesatellites_param="F,0,0,1,0,13.229167,0,1 @ F,0,0,1,0,13.229167,0,1 @ F,0,0,1,0,13.229167,0,1 @ F,0,0,1,0,13.229167,0,1 @ F,0,0,1,0,13.229167,0,1 @ F,0,0,1,0,13.229167,0,1"
       unit="px"
       method="auto"
       mode="F"
       radius="50"
       chamfer_steps="1"
       flexible="false"
       use_knot_distance="true"
       apply_no_radius="true"
       apply_with_radius="true"
       only_selected="false"
       hide_knots="false" /><filter
       style="color-interpolation-filters:sRGB"
       inkscape:label="Invert"
       id="filter4020"
       x="0"
       y="0"
       width="1"
       height="1"><feColorMatrix
         values="1 0 0 0 0 0 1 0 0 0 0 0 1 0 0 -0.21 -0.72 -0.07 2 0 "
         result="color2"
         id="feColorMatrix4018" /></filter></defs><g
     inkscape:label="white_icon_white_text_color_bg"
     inkscape:groupmode="layer"
     id="layer1"
     style="display:inline"><rect
       style="display:inline;fill:#5da271;fill-opacity:1;stroke-width:0.189735"
       id="rect6906"
       x="1.7763568e-15"
       y="0"
       height="41.223999"
       width="177.756" /><text
       xml:space="preserve"
       id="text4078-2"
       style="font-style:normal;font-weight:normal;font-size:28.2222px;line-height:1;font-family:sans-serif;letter-spacing:0px;word-spacing:0px;white-space:pre;shape-padding:14.1139;display:inline;fill:#ffffff;fill-opacity:1;stroke:none;stroke-width:0.264583"
       x="38.030628"
       y="30.741308"
       inkscape:label="text"><tspan
         id="tspan4164-7"
         style="font-style:normal;font-variant:normal;font-weight:600;font-stretch:normal;font-size:28.2222px;font-family:'Montserrat Alternates';-inkscape-font-specification:'Montserrat Alternates Semi-Bold';fill:#ffffff;stroke-width:0.264583"
         dx="3">MA<tspan
   style="letter-spacing:0.529167px"
   id="tspan7710">N</tspan><tspan
   style="letter-spacing:2.64583px"
   id="tspan7704">I</tspan><tspan
   style="letter-spacing:0.79375px"
   id="tspan7714">T</tspan>O</tspan></text><path
       id="path221-0"
       style="display:inline;fill:#ffffff;fill-opacity:1;stroke-width:0.0407443"
       d="M 18.353115,1.4098595e-6 A 3.5285663,3.5285663 0 0 0 16.588356,0.47119341 L 1.784973,8.9974924 A 3.5285663,3.5285663 0 0 0 0.01737202,12.051396 L 2.0242436e-6,29.134628 A 3.5285663,3.5285663 0 0 0 1.760971,32.192321 l 14.785698,8.556933 a 3.5285663,3.5285663 0 0 0 3.52857,0.0038 l 14.803384,-8.526615 a 3.5285663,3.5285663 0 0 0 1.767601,-3.053905 l 0.01737,-17.083231 A 3.5285663,3.5285663 0 0 0 34.902624,9.0315994 L 20.116926,0.47466741 A 3.5285663,3.5285663 0 0 0 18.353115,1.4098595e-6 Z M 17.364307,9.1595034 c 0.630655,0 1.079564,0.254067 1.340623,0.758897 0.173941,0.3363646 0.768515,4.7560746 0.962911,7.1566206 0.09878,1.21977 0.27928,1.582851 0.786057,1.582851 0.310028,0 0.374072,-0.06079 0.481614,-0.456664 0.06823,-0.251166 0.267862,-1.799198 0.4434,-3.440143 0.341245,-3.189982 0.45249,-3.585842 1.089236,-3.875964 0.17224,-0.07848 0.529389,-0.142747 0.793952,-0.142747 0.611104,0 1.454734,0.695131 1.458421,1.201666 0.0013,0.176394 -0.169619,1.867315 -0.379606,3.75785 -0.209986,1.890535 -0.349237,3.52228 -0.309496,3.62584 0.09641,0.251244 0.377468,0.347421 0.745001,0.255176 0.260482,-0.06538 0.351967,-0.243846 0.678365,-1.322306 0.918079,-3.033458 1.017835,-3.303874 1.366519,-3.701003 0.318975,-0.363292 0.425838,-0.407398 0.987861,-0.407398 0.708885,0 1.079635,0.200486 1.354519,0.732053 0.333753,0.645405 0.32938,0.66829 -0.924383,4.747921 -0.290529,0.945356 -0.564923,2.214445 -0.724157,3.348873 -0.458862,3.269067 -1.034272,5.050911 -2.124469,6.578685 -0.73126,1.024768 -1.543963,1.665351 -2.986321,2.354064 -1.137367,0.543084 -1.180319,0.552945 -2.557131,0.590253 -1.108089,0.03003 -1.541645,-0.0088 -2.076466,-0.185697 -1.742776,-0.576474 -3.88611,-1.924667 -5.407021,-3.400982 C 11.898103,28.46537 11.235487,27.876532 10.891419,27.608623 6.647742,24.30427 6.189868,23.825143 6.658272,23.179356 7.039849,22.653277 7.961,22.264997 8.816533,22.269501 c 0.948661,0.005 1.455127,0.228394 2.572606,1.134398 0.497979,0.403741 0.986671,0.733947 1.086078,0.733947 0.281781,0 0.552356,-0.655987 0.552356,-1.339359 0,-0.601835 -0.666571,-2.583599 -2.027514,-6.027909 -0.756049,-1.913426 -1.260561,-3.369677 -1.260091,-3.637525 6.77e-4,-0.387313 0.432204,-1.021248 0.881432,-1.295146 0.895412,-0.545939 1.936625,-0.07442 2.355011,1.066814 0.116468,0.317689 0.452725,1.208008 0.747212,1.978247 0.294487,0.77024 0.731127,1.948311 0.970491,2.618084 0.239364,0.669774 0.518707,1.313735 0.620887,1.430945 0.267616,0.306982 0.833478,0.27334 1.05355,-0.06253 0.161957,-0.247178 0.137287,-0.643537 -0.240649,-3.854173 -0.231702,-1.968347 -0.421294,-3.792628 -0.421294,-4.053766 0,-0.9828216 0.753749,-1.8020236 1.657699,-1.8020246 z"
       inkscape:label="logo" /></g><g
     inkscape:label="white_icon_white_text_transp"
     inkscape:groupmode="layer"
     id="layer1-9"
     style="font-variation-settings:normal;display:inline;opacity:1;vector-effect:none;fill:#ffffff;fill-opacity:1;stroke-width:0.0407443;stroke-linecap:butt;stroke-linejoin:miter;stroke-miterlimit:4;stroke-dasharray:none;stroke-dashoffset:0;stroke-opacity:1;-inkscape-stroke:none;stop-color:#000000;stop-opacity:1"><text
       xml:space="preserve"
       id="text4078-2-8"
       style="font-style:normal;font-weight:normal;font-size:28.2222px;line-height:1;font-family:sans-serif;letter-spacing:0px;word-spacing:0px;white-space:pre;shape-padding:14.1139;display:inline;fill:#ffffff;fill-opacity:1;stroke:none;stroke-width:0.264583"
       x="38.030628"
       y="30.741308"
       inkscape:label="text"><tspan
         id="tspan4164-7-8"
         style="font-style:normal;font-variant:normal;font-weight:600;font-stretch:normal;font-size:28.2222px;font-family:'Montserrat Alternates';-inkscape-font-specification:'Montserrat Alternates Semi-Bold';fill:#ffffff;stroke-width:0.264583"
         dx="3">MA<tspan
   style="letter-spacing:0.529167px"
   id="tspan7710-4">N</tspan><tspan
   style="letter-spacing:2.64583px"
   id="tspan7704-3">I</tspan><tspan
   style="letter-spacing:0.79375px"
   id="tspan7714-1">T</tspan>O</tspan></text><path
       id="path221-0-4"
       style="display:inline;fill:#ffffff;fill-opacity:1;stroke-width:0.0407443"
       d="M 18.353115,1.4098595e-6 A 3.5285663,3.5285663 0 0 0 16.588356,0.47119341 L 1.784973,8.9974924 A 3.5285663,3.5285663 0 0 0 0.01737202,12.051396 L 2.0242436e-6,29.134628 A 3.5285663,3.5285663 0 0 0 1.760971,32.192321 l 14.785698,8.556933 a 3.5285663,3.5285663 0 0 0 3.52857,0.0038 l 14.803384,-8.526615 a 3.5285663,3.5285663 0 0 0 1.767601,-3.053905 l 0.01737,-17.083231 A 3.5285663,3.5285663 0 0 0 34.902624,9.0315994 L 20.116926,0.47466741 A 3.5285663,3.5285663 0 0 0 18.353115,1.4098595e-6 Z M 17.364307,9.1595034 c 0.630655,0 1.079564,0.254067 1.340623,0.758897 0.173941,0.3363646 0.768515,4.7560746 0.962911,7.1566206 0.09878,1.21977 0.27928,1.582851 0.786057,1.582851 0.310028,0 0.374072,-0.06079 0.481614,-0.456664 0.06823,-0.251166 0.267862,-1.799198 0.4434,-3.440143 0.341245,-3.189982 0.45249,-3.585842 1.089236,-3.875964 0.17224,-0.07848 0.529389,-0.142747 0.793952,-0.142747 0.611104,0 1.454734,0.695131 1.458421,1.201666 0.0013,0.176394 -0.169619,1.867315 -0.379606,3.75785 -0.209986,1.890535 -0.349237,3.52228 -0.309496,3.62584 0.09641,0.251244 0.377468,0.347421 0.745001,0.255176 0.260482,-0.06538 0.351967,-0.243846 0.678365,-1.322306 0.918079,-3.033458 1.017835,-3.303874 1.366519,-3.701003 0.318975,-0.363292 0.425838,-0.407398 0.987861,-0.407398 0.708885,0 1.079635,0.200486 1.354519,0.732053 0.333753,0.645405 0.32938,0.66829 -0.924383,4.747921 -0.290529,0.945356 -0.564923,2.214445 -0.724157,3.348873 -0.458862,3.269067 -1.034272,5.050911 -2.124469,6.578685 -0.73126,1.024768 -1.543963,1.665351 -2.986321,2.354064 -1.137367,0.543084 -1.180319,0.552945 -2.557131,0.590253 -1.108089,0.03003 -1.541645,-0.0088 -2.076466,-0.185697 -1.742776,-0.576474 -3.88611,-1.924667 -5.407021,-3.400982 C 11.898103,28.46537 11.235487,27.876532 10.891419,27.608623 6.647742,24.30427 6.189868,23.825143 6.658272,23.179356 7.039849,22.653277 7.961,22.264997 8.816533,22.269501 c 0.948661,0.005 1.455127,0.228394 2.572606,1.134398 0.497979,0.403741 0.986671,0.733947 1.086078,0.733947 0.281781,0 0.552356,-0.655987 0.552356,-1.339359 0,-0.601835 -0.666571,-2.583599 -2.027514,-6.027909 -0.756049,-1.913426 -1.260561,-3.369677 -1.260091,-3.637525 6.77e-4,-0.387313 0.432204,-1.021248 0.881432,-1.295146 0.895412,-0.545939 1.936625,-0.07442 2.355011,1.066814 0.116468,0.317689 0.452725,1.208008 0.747212,1.978247 0.294487,0.77024 0.731127,1.948311 0.970491,2.618084 0.239364,0.669774 0.518707,1.313735 0.620887,1.430945 0.267616,0.306982 0.833478,0.27334 1.05355,-0.06253 0.161957,-0.247178 0.137287,-0.643537 -0.240649,-3.854173 -0.231702,-1.968347 -0.421294,-3.792628 -0.421294,-4.053766 0,-0.9828216 0.753749,-1.8020236 1.657699,-1.8020246 z"
       inkscape:label="logo" /></g><g
     inkscape:groupmode="layer"
     id="layer2"
     inkscape:label="color_icon_black_text_transp"
     style="display:inline"><text
       xml:space="preserve"
       id="text4078-2-8-9"
       style="font-style:normal;font-weight:normal;font-size:28.2222px;line-height:1;font-family:sans-serif;font-variation-settings:normal;letter-spacing:0px;word-spacing:0px;white-space:pre;shape-padding:14.1139;display:inline;vector-effect:none;fill:#262626;fill-opacity:1;stroke:none;stroke-width:0.264583;stroke-linecap:butt;stroke-linejoin:miter;stroke-miterlimit:4;stroke-dasharray:none;stroke-dashoffset:0;stroke-opacity:1;-inkscape-stroke:none;stop-color:#000000"
       x="38.030628"
       y="30.741308"
       inkscape:label="text"><tspan
         id="tspan4164-7-8-2"
         style="font-style:normal;font-variant:normal;font-weight:600;font-stretch:normal;font-size:28.2222px;font-family:'Montserrat Alternates';-inkscape-font-specification:'Montserrat Alternates Semi-Bold';fill:#262626;fill-opacity:1;stroke-width:0.264583"
         dx="3">MA<tspan
   style="letter-spacing:0.529167px;fill:#262626;fill-opacity:1"
   id="tspan7710-4-0">N</tspan><tspan
   style="letter-spacing:2.64583px;fill:#262626;fill-opacity:1"
   id="tspan7704-3-6">I</tspan><tspan
   style="letter-spacing:0.79375px;fill:#262626;fill-opacity:1"
   id="tspan7714-1-8">T</tspan>O</tspan></text><path
       id="path221-0-4-9"
       style="font-variation-settings:normal;display:inline;vector-effect:none;fill:#5da271;fill-opacity:1;stroke-width:0.0407443;stroke-linecap:butt;stroke-linejoin:miter;stroke-miterlimit:4;stroke-dasharray:none;stroke-dashoffset:0;stroke-opacity:1;-inkscape-stroke:none;stop-color:#000000"
       d="M 18.353115,1.4098595e-6 A 3.5285663,3.5285663 0 0 0 16.588356,0.47119341 L 1.784973,8.9974924 A 3.5285663,3.5285663 0 0 0 0.01737202,12.051396 L 2.0242436e-6,29.134628 A 3.5285663,3.5285663 0 0 0 1.760971,32.192321 l 14.785698,8.556933 a 3.5285663,3.5285663 0 0 0 3.52857,0.0038 l 14.803384,-8.526615 a 3.5285663,3.5285663 0 0 0 1.767601,-3.053905 l 0.01737,-17.083231 A 3.5285663,3.5285663 0 0 0 34.902624,9.0315994 L 20.116926,0.47466741 A 3.5285663,3.5285663 0 0 0 18.353115,1.4098595e-6 Z M 17.364307,9.1595034 c 0.630655,0 1.079564,0.254067 1.340623,0.758897 0.173941,0.3363646 0.768515,4.7560746 0.962911,7.1566206 0.09878,1.21977 0.27928,1.582851 0.786057,1.582851 0.310028,0 0.374072,-0.06079 0.481614,-0.456664 0.06823,-0.251166 0.267862,-1.799198 0.4434,-3.440143 0.341245,-3.189982 0.45249,-3.585842 1.089236,-3.875964 0.17224,-0.07848 0.529389,-0.142747 0.793952,-0.142747 0.611104,0 1.454734,0.695131 1.458421,1.201666 0.0013,0.176394 -0.169619,1.867315 -0.379606,3.75785 -0.209986,1.890535 -0.349237,3.52228 -0.309496,3.62584 0.09641,0.251244 0.377468,0.347421 0.745001,0.255176 0.260482,-0.06538 0.351967,-0.243846 0.678365,-1.322306 0.918079,-3.033458 1.017835,-3.303874 1.366519,-3.701003 0.318975,-0.363292 0.425838,-0.407398 0.987861,-0.407398 0.708885,0 1.079635,0.200486 1.354519,0.732053 0.333753,0.645405 0.32938,0.66829 -0.924383,4.747921 -0.290529,0.945356 -0.564923,2.214445 -0.724157,3.348873 -0.458862,3.269067 -1.034272,5.050911 -2.124469,6.578685 -0.73126,1.024768 -1.543963,1.665351 -2.986321,2.354064 -1.137367,0.543084 -1.180319,0.552945 -2.557131,0.590253 -1.108089,0.03003 -1.541645,-0.0088 -2.076466,-0.185697 -1.742776,-0.576474 -3.88611,-1.924667 -5.407021,-3.400982 C 11.898103,28.46537 11.235487,27.876532 10.891419,27.608623 6.647742,24.30427 6.189868,23.825143 6.658272,23.179356 7.039849,22.653277 7.961,22.264997 8.816533,22.269501 c 0.948661,0.005 1.455127,0.228394 2.572606,1.134398 0.497979,0.403741 0.986671,0.733947 1.086078,0.733947 0.281781,0 0.552356,-0.655987 0.552356,-1.339359 0,-0.601835 -0.666571,-2.583599 -2.027514,-6.027909 -0.756049,-1.913426 -1.260561,-3.369677 -1.260091,-3.637525 6.77e-4,-0.387313 0.432204,-1.021248 0.881432,-1.295146 0.895412,-0.545939 1.936625,-0.07442 2.355011,1.066814 0.116468,0.317689 0.452725,1.208008 0.747212,1.978247 0.294487,0.77024 0.731127,1.948311 0.970491,2.618084 0.239364,0.669774 0.518707,1.313735 0.620887,1.430945 0.267616,0.306982 0.833478,0.27334 1.05355,-0.06253 0.161957,-0.247178 0.137287,-0.643537 -0.240649,-3.854173 -0.231702,-1.968347 -0.421294,-3.792628 -0.421294,-4.053766 0,-0.9828216 0.753749,-1.8020236 1.657699,-1.8020246 z"
       inkscape:label="logo" /></g></svg>
